<?xml version="1.0" standalone="no"?>
<!DOCTYPE svg PUBLIC "-//W3C//DTD SVG 20010904//EN"
 "http://www.w3.org/TR/2001/REC-SVG-20010904/DTD/svg10.dtd">
<svg version="1.0" xmlns="http://www.w3.org/2000/svg"
 width="429.000000pt" height="429.000000pt" viewBox="0 0 429.000000 429.000000"
 preserveAspectRatio="xMidYMid meet">
<metadata>
Created by potrace 1.14, written by Peter Selinger 2001-2017
</metadata>
<g transform="translate(0.000000,429.000000) scale(0.100000,-0.100000)"
fill="#000000" stroke="none">
<path d="M1859 3856 c-224 -79 -410 -271 -510 -526 -7 -20 -59 -80 -119 -140
-214 -212 -339 -423 -409 -694 -108 -416 -46 -861 170 -1208 184 -297 416
-490 738 -613 152 -58 287 -80 491 -79 201 0 302 15 475 71 543 175 942 665
995 1221 30 314 -77 645 -263 820 -126 117 -260 134 -322 39 -47 -72 -21 -145
76 -216 156 -115 225 -252 236 -472 16 -327 -108 -623 -366 -872 -251 -242
-589 -362 -917 -327 -219 23 -365 89 -491 222 -149 159 -220 362 -209 598 11
230 84 400 241 556 121 121 229 168 455 202 74 12 153 28 175 37 107 45 196
145 240 270 l24 70 -38 40 c-55 57 -72 87 -124 207 -25 59 -62 132 -82 163
-83 124 -238 222 -402 254 l-85 16 6 77 c8 100 37 190 81 256 42 62 36 64 -66
28z m250 -706 c47 -23 71 -56 99 -132 l22 -58 -41 0 c-116 0 -205 73 -235 194
l-7 29 62 -6 c34 -4 79 -16 100 -27z"/>
</g>
</svg>
